<?xml version="1.0" standalone="no"?>
<!DOCTYPE svg PUBLIC "-//W3C//DTD SVG 20010904//EN"
 "http://www.w3.org/TR/2001/REC-SVG-20010904/DTD/svg10.dtd">
<svg version="1.0" xmlns="http://www.w3.org/2000/svg"
 width="920.000000pt" height="920.000000pt" viewBox="0 0 920.000000 920.000000"
 preserveAspectRatio="xMidYMid meet">
<metadata>
Created by potrace 1.11, written by Peter Selinger 2001-2013
</metadata>
<g transform="translate(0.000000,920.000000) scale(0.100000,-0.100000)"
fill="#000000" stroke="none">
<path d="M1970 7615 c-14 -17 -44 -67 -62 -105 -7 -14 -15 -27 -18 -30 -3 -3
-12 -17 -20 -33 -13 -24 -225 -392 -289 -501 -13 -23 -35 -61 -49 -86 -14 -25
-34 -57 -44 -72 -11 -16 -17 -28 -13 -28 3 0 1 -6 -5 -12 -16 -19 -170 -289
-170 -298 0 -5 -3 -10 -8 -12 -6 -2 -121 -201 -176 -303 -6 -11 -14 -22 -17
-25 -3 -3 -19 -30 -36 -60 -30 -55 -113 -199 -172 -298 -17 -29 -31 -57 -31
-62 0 -4 -3 -10 -7 -12 -5 -1 -15 -16 -24 -33 -9 -16 -67 -118 -129 -225 -62
-107 -120 -208 -129 -225 -9 -16 -18 -32 -21 -35 -3 -3 -12 -18 -20 -35 -8
-16 -17 -32 -20 -35 -3 -3 -10 -14 -16 -25 -38 -69 -66 -118 -88 -154 -14 -22
-26 -43 -26 -45 0 -2 -27 -50 -60 -105 -33 -56 -60 -104 -60 -108 0 -3 -8 -15
-17 -25 -16 -18 -16 -22 7 -66 23 -45 89 -160 110 -192 6 -8 13 -22 17 -30 4
-8 27 -49 51 -90 24 -41 47 -82 52 -90 5 -8 30 -51 56 -95 26 -44 45 -81 43
-81 -2 -1 3 -10 12 -20 8 -11 42 -65 73 -122 32 -56 62 -105 67 -108 5 -3 7
-10 4 -15 -4 -5 -1 -9 4 -9 6 0 11 -4 11 -9 0 -8 17 -39 82 -150 15 -25 39
-66 53 -91 14 -25 35 -61 46 -80 12 -19 31 -53 42 -75 12 -22 26 -44 30 -50
18 -23 327 -566 327 -575 0 -6 5 -10 10 -10 6 0 10 -7 10 -15 0 -8 5 -15 10
-15 6 0 10 -5 10 -10 0 -9 56 -111 107 -195 7 -11 19 -33 28 -50 9 -16 24 -43
35 -60 10 -16 27 -46 38 -65 40 -73 62 -110 86 -149 15 -22 26 -45 26 -51 0
-5 5 -10 11 -10 5 0 8 -4 5 -9 -3 -5 1 -14 9 -21 8 -7 15 -19 15 -26 0 -8 4
-14 8 -14 5 0 14 -16 22 -35 8 -19 17 -35 22 -35 4 0 8 -4 8 -8 0 -5 32 -65
71 -133 40 -68 81 -141 92 -162 l21 -37 876 0 876 0 22 41 c37 68 57 104 62
109 3 3 12 19 20 35 8 17 19 35 23 40 7 9 200 341 261 448 11 21 26 46 31 55
6 9 28 48 50 87 22 38 46 79 52 90 7 11 18 32 25 47 7 16 16 28 20 28 4 0 8 4
8 9 0 5 18 39 40 75 22 36 40 70 40 76 0 5 4 10 8 10 4 0 13 12 19 28 12 27
50 94 81 142 9 14 26 43 38 65 11 22 30 54 40 72 20 32 174 300 209 363 11 19
32 55 46 80 15 25 36 61 47 80 10 19 48 85 84 146 36 61 68 117 72 125 4 8 12
23 19 34 7 11 37 63 67 115 30 52 60 104 67 115 7 11 16 27 20 35 9 19 120
210 133 230 6 8 13 22 17 30 4 8 26 48 50 88 24 40 43 77 43 82 0 6 5 10 10
10 6 0 10 4 10 10 0 5 22 47 49 92 27 46 58 99 69 119 43 77 47 84 53 89 3 3
12 19 20 35 9 17 49 89 91 160 41 72 81 142 89 155 8 14 19 28 24 32 6 4 6 8
1 8 -5 0 -2 8 6 18 8 9 28 42 44 72 16 30 32 57 35 60 5 5 36 59 85 150 11 19
22 37 27 38 4 2 7 8 7 13 0 5 19 42 43 82 24 39 61 104 84 142 22 39 61 105
87 149 25 43 46 82 46 87 0 5 4 9 10 9 5 0 9 4 7 9 -1 5 2 10 8 11 8 2 80
-105 86 -128 1 -4 7 -16 14 -27 18 -29 84 -143 113 -195 13 -25 28 -49 32 -55
4 -5 19 -30 32 -55 14 -25 58 -101 98 -170 40 -69 83 -144 96 -167 13 -23 53
-92 89 -153 36 -61 65 -115 65 -121 0 -5 5 -9 10 -9 6 0 10 -4 10 -10 0 -8 67
-128 100 -180 5 -8 29 -49 52 -90 24 -41 48 -84 55 -95 7 -11 15 -26 19 -32 3
-7 -6 -34 -21 -60 -15 -27 -41 -73 -58 -103 -16 -30 -33 -59 -37 -65 -4 -5
-17 -27 -29 -48 -31 -55 -52 -90 -123 -213 -36 -61 -68 -117 -72 -125 -4 -8
-12 -23 -19 -34 -48 -79 -175 -303 -180 -317 -4 -10 -11 -18 -17 -18 -6 0 -9
-4 -6 -9 3 -5 -1 -14 -9 -21 -8 -7 -15 -16 -15 -20 0 -4 -22 -45 -49 -91 -26
-46 -108 -187 -182 -314 -73 -126 -140 -245 -148 -262 -8 -18 -19 -33 -23 -33
-4 0 -8 -4 -8 -10 0 -7 -58 -113 -110 -200 -5 -8 -30 -51 -56 -95 -25 -44 -56
-96 -67 -115 -11 -19 -37 -64 -57 -100 -133 -233 -215 -376 -220 -380 -4 -3
-13 -20 -21 -38 -8 -17 -17 -32 -21 -32 -5 0 -8 -6 -8 -14 0 -8 -6 -21 -13
-28 -7 -7 -25 -37 -41 -67 -37 -71 -50 -95 -56 -101 -3 -3 -11 -16 -18 -29 -8
-13 -22 -39 -33 -58 -10 -18 -19 -36 -19 -38 0 -3 393 -5 873 -5 l872 0 38 66
c20 36 37 70 37 75 0 5 5 9 10 9 6 0 10 6 10 14 0 7 7 19 15 26 9 7 14 15 11
17 -2 3 18 40 45 84 27 43 46 79 42 79 -5 0 -3 4 3 8 6 4 30 41 53 82 48 86
64 113 71 120 5 5 35 59 69 125 9 16 18 32 21 35 8 8 40 62 58 100 9 19 25 44
35 54 9 11 17 24 17 28 0 13 93 172 102 176 4 2 8 7 8 12 0 5 43 84 97 177 53
92 104 182 114 200 10 17 29 50 43 72 15 22 26 43 26 45 0 3 25 46 55 96 30
50 55 93 55 96 0 3 8 18 18 32 11 15 32 52 49 82 17 30 44 79 62 108 17 29 31
55 31 58 0 3 5 10 10 17 6 7 73 120 149 252 160 280 369 643 384 666 8 13 2
31 -23 75 -18 33 -44 79 -58 104 -14 25 -28 50 -32 55 -4 6 -19 30 -32 55 -40
70 -187 323 -198 340 -6 8 -13 22 -17 30 -4 8 -49 87 -100 174 -51 87 -93 160
-93 162 0 1 -26 46 -58 101 -32 54 -61 105 -65 113 -4 8 -16 29 -27 45 -10 17
-25 41 -33 55 -46 83 -73 129 -94 162 -12 21 -23 42 -23 48 0 5 -4 10 -10 10
-5 0 -9 3 -8 8 1 4 -5 18 -14 32 -15 24 -182 314 -236 410 -13 25 -28 50 -32
55 -5 6 -23 37 -40 70 -18 33 -37 65 -42 72 -5 7 -18 27 -27 45 -23 44 -57
102 -130 226 -34 57 -61 108 -61 113 0 5 -4 9 -10 9 -5 0 -9 3 -8 8 1 4 -5 18
-14 32 -9 14 -51 86 -93 160 -43 74 -91 158 -107 185 -16 28 -34 60 -40 73
l-11 22 -871 0 c-479 0 -876 -4 -882 -8 -6 -4 -30 -42 -55 -85 -24 -43 -49
-86 -54 -95 -6 -10 -30 -52 -54 -94 -23 -43 -47 -80 -52 -84 -5 -3 -7 -10 -4
-15 4 -5 1 -9 -4 -9 -6 0 -11 -6 -11 -14 0 -8 -3 -16 -7 -18 -5 -1 -17 -21
-29 -43 -11 -22 -55 -99 -97 -172 -88 -151 -111 -190 -146 -253 -13 -25 -27
-47 -30 -50 -3 -3 -14 -21 -24 -40 -21 -42 -57 -106 -79 -140 -32 -49 -69
-115 -75 -132 -3 -10 -9 -18 -14 -18 -5 0 -9 -4 -9 -9 0 -8 -104 -194 -151
-271 -5 -8 -60 -105 -123 -215 -63 -110 -119 -204 -123 -210 -4 -5 -16 -26
-25 -45 -25 -50 -52 -94 -60 -98 -5 -2 -8 -8 -8 -14 0 -6 -15 -36 -34 -67 -19
-31 -43 -72 -54 -91 -11 -19 -35 -62 -54 -95 -19 -33 -41 -71 -49 -85 -8 -14
-16 -27 -19 -30 -3 -3 -20 -34 -39 -70 -19 -36 -43 -76 -53 -89 -10 -13 -18
-30 -18 -37 0 -8 -3 -14 -7 -14 -5 0 -13 -10 -19 -23 -30 -60 -60 -112 -66
-115 -5 -2 -8 -8 -8 -12 0 -5 -25 -50 -55 -101 -30 -50 -55 -95 -55 -99 0 -5
-3 -10 -7 -12 -5 -1 -17 -21 -29 -43 -11 -22 -71 -128 -133 -235 -120 -207
-138 -239 -179 -310 -14 -25 -54 -93 -89 -153 -35 -59 -63 -109 -63 -112 0 -3
-16 -29 -35 -59 -19 -30 -35 -58 -35 -61 0 -3 -15 -29 -33 -58 -18 -29 -36
-59 -40 -67 -4 -8 -18 -33 -32 -55 -13 -22 -29 -51 -35 -64 -6 -13 -19 -35
-29 -50 -10 -14 -35 -57 -56 -96 -57 -105 -57 -105 -72 -93 -7 6 -13 14 -13
18 0 4 -18 38 -40 74 -22 36 -40 70 -40 76 0 5 -4 10 -10 10 -5 0 -10 4 -10 9
0 5 -23 49 -51 98 -130 223 -149 256 -149 264 0 4 -3 9 -7 11 -5 2 -17 19 -27
38 -10 19 -35 62 -54 95 -19 33 -44 76 -55 95 -11 19 -28 49 -38 65 -11 17
-22 37 -26 45 -4 8 -26 48 -50 88 -24 40 -43 77 -43 82 0 6 -4 10 -10 10 -5 0
-10 4 -10 10 0 5 -20 44 -45 86 -25 41 -45 79 -45 83 0 4 -5 12 -12 19 -12 12
-70 111 -109 187 l-20 40 67 115 c81 140 68 117 254 440 84 146 161 279 171
295 11 17 22 36 26 44 3 8 35 64 71 125 118 203 214 369 234 405 11 20 63 110
116 201 52 91 104 181 115 200 10 19 42 73 70 120 27 47 58 99 67 115 69 122
148 259 210 365 40 69 81 141 92 160 11 19 44 76 73 125 29 50 54 95 55 100 1
6 11 22 21 37 10 14 19 31 19 37 0 6 5 11 10 11 6 0 10 4 10 10 0 5 14 32 30
58 17 27 30 52 30 56 0 3 -391 6 -869 6 -763 0 -870 -2 -881 -15z"/>
</g>
</svg>
